<svg xmlns="http://www.w3.org/2000/svg" viewBox="0 0 478.000000 792.000000" fill="currentColor" role="img" aria-label="Moriah símbolo"><g transform="translate(0.000000,792.000000) scale(0.100000,-0.100000)" fill="currentColor" stroke="none"><path d="M490 7467 c-29 -15 -53 -77 -44 -113 12 -46 44 -56 197 -65 191 -11 313 -25 492 -59 83 -16 166 -31 186 -34 20 -4 127 -36 239 -72 302 -97 468 -172 755 -337 99 -57 399 -261 465 -316 97 -82 295 -272 308 -298 16 -30 10 -41 -73 -128 -64 -67 -228 -297 -327 -455 -74 -120 -218 -382 -218 -397 0 -6 -7 -16 -15 -23 -18 -15 -20 -14 -141 94 -115 102 -198 157 -418 279 -231 128 -347 176 -586 246 -243 70 -391 91 -651 91 -165 0 -188 -2 -201 -17 -14 -16 -16 -309 -19 -2710 l-4 -2692 23 -23 c19 -19 33 -22 102 -23 74 0 82 2 107 28 l28 27 -4 2600 -4 2599 27 12 c28 13 125 5 306 -25 85 -14 115 -21 288 -70 167 -48 415 -158 570 -254 82 -52 283 -209 445 -348 34 -30 34 -44 -4 -152 -43 -122 -81 -252 -123 -427 -20 -82 -39 -159 -42 -170 -2 -11 -14 -74 -25 -140 -46 -272 -49 -391 -49 -2067 0 -1565 0 -1578 20 -1598 40 -40 183 -20 210 29 8 15 10 329 8 1123 -6 2167 -6 2128 38 2438 26 180 117 552 161 652 30 70 34 67 146 -99 165 -243 357 -689 408 -948 49 -247 49 -257 49 -1754 -1 -1226 1 -1406 14 -1426 27 -41 165 -45 201 -5 15 16 16 126 15 1341 0 728 -5 1391 -10 1473 -16 276 -77 575 -154 771 -147 370 -276 594 -503 873 -48 61 -52 80 -23 147 25 58 157 303 218 405 101 168 280 416 345 479 41 38 54 37 89 -11 14 -18 67 -91 120 -163 309 -422 592 -1130 663 -1660 8 -66 21 -163 27 -215 7 -65 12 -618 15 -1762 l4 -1667 26 -21 c43 -33 161 -20 183 20 16 29 7 3342 -8 3465 -16 122 -39 257 -69 400 -14 66 -27 131 -30 145 -3 14 -13 52 -23 85 -10 33 -28 94 -40 135 -39 135 -93 294 -116 345 -12 28 -41 95 -64 150 -51 124 -50 123 -131 270 -129 234 -245 413 -364 560 -59 71 -85 112 -85 130 0 21 30 56 133 159 136 136 239 224 362 306 39 25 132 89 209 141 206 140 234 158 314 196 60 28 231 91 325 120 15 5 17 19 17 119 l0 113 -77 -29 c-172 -64 -417 -177 -584 -268 -154 -83 -408 -258 -509 -349 -36 -32 -103 -91 -150 -130 -47 -39 -112 -99 -145 -132 -33 -34 -66 -61 -73 -61 -8 0 -64 48 -125 108 -166 160 -370 319 -615 481 -107 70 -476 255 -598 300 -453 164 -453 164 -574 190 -158 33 -285 50 -487 66 -233 18 -320 19 -353 2z"></path></g></svg>